<svg width="34" height="34" viewBox="0 0 34 34" fill="none" xmlns="http://www.w3.org/2000/svg">
<path fill-rule="evenodd" clip-rule="evenodd" d="M6.37494 13.8125C6.37395 11.836 7.06177 9.92098 8.32008 8.39679C9.57839 6.8726 11.3285 5.83457 13.2694 5.46124C15.2104 5.08792 17.2207 5.40265 18.9546 6.35129C20.6886 7.29994 22.0377 8.82319 22.77 10.659C23.5827 10.5657 24.406 10.6613 25.1757 10.9385C25.9454 11.2156 26.6407 11.6668 27.2074 12.2568C27.7741 12.8468 28.1969 13.5597 28.4428 14.3399C28.6887 15.1201 28.7511 15.9466 28.6251 16.7549C29.8542 17.4456 30.8197 18.5243 31.3704 19.8221C31.9212 21.12 32.0262 22.5638 31.669 23.9277C31.3118 25.2915 30.5125 26.4985 29.3963 27.3598C28.2801 28.221 26.9098 28.688 25.4999 28.6875H9.56244C7.87046 28.6883 6.22879 28.1122 4.90838 27.0542C3.58797 25.9962 2.66776 24.5196 2.29964 22.8682C1.93151 21.2168 2.13748 19.4891 2.88353 17.9705C3.62959 16.4519 4.87115 15.2331 6.40327 14.5152C6.38425 14.2814 6.3748 14.047 6.37494 13.8125Z" fill="#2B62D0"/>
</svg>
