<svg width="34" height="34" viewBox="0 0 34 34" fill="none" xmlns="http://www.w3.org/2000/svg">
<path d="M22.3125 11.6875C22.5943 11.6875 22.8646 11.7994 23.0638 11.9987C23.2631 12.198 23.375 12.4682 23.375 12.75C23.375 14.3367 22.678 15.7618 21.5759 16.7337C21.4722 16.8315 21.35 16.9076 21.2163 16.9572C21.0827 17.0068 20.9405 17.0291 20.7981 17.0226C20.6557 17.0161 20.516 16.9811 20.3875 16.9195C20.2589 16.858 20.144 16.7712 20.0497 16.6643C19.9554 16.5574 19.8835 16.4326 19.8384 16.2974C19.7933 16.1622 19.7759 16.0193 19.7871 15.8772C19.7984 15.7351 19.8382 15.5967 19.904 15.4703C19.9699 15.3439 20.0605 15.232 20.1705 15.1413C20.5103 14.8426 20.7824 14.4747 20.9686 14.0623C21.1548 13.6499 21.2507 13.2025 21.25 12.75C21.25 12.4682 21.362 12.198 21.5612 11.9987C21.7605 11.7994 22.0307 11.6875 22.3125 11.6875Z" fill="#2B62D0"/>
<path fill-rule="evenodd" clip-rule="evenodd" d="M17 3.1875C9.37125 3.1875 3.1875 9.37125 3.1875 17C3.1875 24.6287 9.37125 30.8125 17 30.8125C24.6287 30.8125 30.8125 24.6287 30.8125 17C30.8125 9.37125 24.6287 3.1875 17 3.1875ZM6.48125 22.1C7.64328 24.4981 9.58992 26.427 11.9985 27.5672C14.4071 28.7073 17.1329 28.9901 19.7243 28.3687C19.5251 27.8383 19.1689 27.3811 18.7031 27.0584C18.2373 26.7357 17.6842 26.5627 17.1176 26.5625C16.7877 26.5626 16.4685 26.4456 16.2169 26.2323C15.9652 26.0191 15.7974 25.7234 15.7434 25.398L15.64 24.7789C15.5068 23.9785 15.9942 23.2064 16.7733 22.984L18.1758 22.5845C18.7807 22.4102 19.2851 21.9923 19.567 21.4285L19.618 21.3251C19.7639 21.0332 19.9771 20.7801 20.24 20.5868C20.503 20.3935 20.8081 20.2655 21.1302 20.2134C21.4524 20.1612 21.7823 20.1864 22.0928 20.2868C22.4033 20.3872 22.6854 20.5601 22.916 20.791L23.375 21.25H24.2647C24.8411 21.2499 25.4067 21.4061 25.9014 21.7019C26.3961 21.9978 26.8013 22.4223 27.0739 22.9302C28.0724 21.2341 28.6264 19.3134 28.6846 17.3462C28.7428 15.3789 28.3032 13.4289 27.4067 11.6768C26.5102 9.92474 25.1857 8.42745 23.5562 7.3238C21.9267 6.22014 20.0448 5.54586 18.0852 5.3635C18.1475 5.73467 18.3402 6.07608 18.6362 6.32117L20.1492 7.582C20.7754 8.10475 20.9072 9.01283 20.4552 9.69283L19.7327 10.778C19.3393 11.3676 18.7606 11.8093 18.088 12.0332L17.8854 12.1012C17.6568 12.1776 17.4489 12.3057 17.2779 12.4755C17.1068 12.6453 16.9772 12.8523 16.8991 13.0803C16.821 13.3083 16.7965 13.5513 16.8275 13.7903C16.8585 14.0293 16.9442 14.258 17.0779 14.4585C17.6007 15.2448 17.3173 16.3101 16.473 16.7322L12.75 18.5938L13.3492 20.094C13.4701 20.3987 13.4763 20.7369 13.3668 21.0459C13.2573 21.3548 13.0394 21.6136 12.7536 21.7741C12.4678 21.9347 12.1335 21.9861 11.8127 21.9189C11.4918 21.8517 11.2063 21.6704 11.0089 21.4087L10.047 20.1252C9.88398 19.9079 9.66813 19.7359 9.41996 19.6255C9.17179 19.5152 8.89952 19.47 8.629 19.4944C8.35849 19.5189 8.0987 19.612 7.8743 19.765C7.6499 19.9181 7.46833 20.1259 7.34683 20.3688L6.48125 22.1Z" fill="#2B62D0"/>
</svg>
